<mxfile host="app.diagrams.net" modified="2022-07-03T10:23:52.755Z" agent="5.0 (Windows NT 10.0; Win64; x64) AppleWebKit/537.36 (KHTML, like Gecko) Chrome/103.0.5060.53 Safari/537.36 Edg/103.0.1264.37" etag="1rq-9v5BEfyrXrCwF1E_" version="20.0.3" type="github">
  <diagram id="C5RBs43oDa-KdzZeNtuy" name="Page-1">
    <mxGraphModel dx="716" dy="394" grid="1" gridSize="10" guides="1" tooltips="1" connect="1" arrows="1" fold="1" page="1" pageScale="1" pageWidth="827" pageHeight="1169" math="0" shadow="0">
      <root>
        <mxCell id="WIyWlLk6GJQsqaUBKTNV-0" />
        <mxCell id="WIyWlLk6GJQsqaUBKTNV-1" parent="WIyWlLk6GJQsqaUBKTNV-0" />
        <mxCell id="WIOuvQ83ryZJ3mfCbLJ9-43" value="" style="rounded=0;whiteSpace=wrap;html=1;align=left;" vertex="1" parent="WIyWlLk6GJQsqaUBKTNV-1">
          <mxGeometry x="275" y="300" width="140" height="160" as="geometry" />
        </mxCell>
        <mxCell id="WIOuvQ83ryZJ3mfCbLJ9-50" style="edgeStyle=orthogonalEdgeStyle;rounded=0;orthogonalLoop=1;jettySize=auto;html=1;exitX=1;exitY=0.5;exitDx=0;exitDy=0;startArrow=none;startFill=0;endArrow=block;endFill=1;entryX=0;entryY=0.5;entryDx=0;entryDy=0;entryPerimeter=0;" edge="1" parent="WIyWlLk6GJQsqaUBKTNV-1" source="WIOuvQ83ryZJ3mfCbLJ9-31" target="WIOuvQ83ryZJ3mfCbLJ9-53">
          <mxGeometry relative="1" as="geometry">
            <mxPoint x="640" y="380" as="targetPoint" />
          </mxGeometry>
        </mxCell>
        <mxCell id="WIOuvQ83ryZJ3mfCbLJ9-31" value="Outgoing JSON file edited with attack payload" style="rounded=1;whiteSpace=wrap;html=1;" vertex="1" parent="WIyWlLk6GJQsqaUBKTNV-1">
          <mxGeometry x="290" y="340" width="110" height="80" as="geometry" />
        </mxCell>
        <mxCell id="WIOuvQ83ryZJ3mfCbLJ9-33" value="Web application server" style="swimlane;" vertex="1" parent="WIyWlLk6GJQsqaUBKTNV-1">
          <mxGeometry x="550" y="260" width="340" height="280" as="geometry">
            <mxRectangle x="140" y="850" width="170" height="30" as="alternateBounds" />
          </mxGeometry>
        </mxCell>
        <mxCell id="WIOuvQ83ryZJ3mfCbLJ9-53" value="Vulnerability found" style="strokeWidth=2;html=1;shape=mxgraph.flowchart.decision;whiteSpace=wrap;" vertex="1" parent="WIOuvQ83ryZJ3mfCbLJ9-33">
          <mxGeometry x="30" y="70" width="100" height="100" as="geometry" />
        </mxCell>
        <mxCell id="WIOuvQ83ryZJ3mfCbLJ9-55" value="File converted by JSON sanitizer to harmless valid JSON query" style="rounded=1;whiteSpace=wrap;html=1;" vertex="1" parent="WIOuvQ83ryZJ3mfCbLJ9-33">
          <mxGeometry x="130" y="200" width="110" height="60" as="geometry" />
        </mxCell>
        <mxCell id="WIOuvQ83ryZJ3mfCbLJ9-54" style="edgeStyle=orthogonalEdgeStyle;rounded=0;orthogonalLoop=1;jettySize=auto;html=1;exitX=1;exitY=0.5;exitDx=0;exitDy=0;exitPerimeter=0;startArrow=none;startFill=0;endArrow=block;endFill=1;" edge="1" parent="WIOuvQ83ryZJ3mfCbLJ9-33" source="WIOuvQ83ryZJ3mfCbLJ9-53">
          <mxGeometry relative="1" as="geometry">
            <mxPoint x="200" y="120" as="targetPoint" />
          </mxGeometry>
        </mxCell>
        <mxCell id="WIOuvQ83ryZJ3mfCbLJ9-56" value="no" style="text;html=1;align=center;verticalAlign=middle;resizable=0;points=[];autosize=1;strokeColor=none;fillColor=none;" vertex="1" parent="WIOuvQ83ryZJ3mfCbLJ9-33">
          <mxGeometry x="70" y="200" width="40" height="30" as="geometry" />
        </mxCell>
        <mxCell id="WIOuvQ83ryZJ3mfCbLJ9-59" value="Potentially harmful JSON script sent to the database" style="rounded=1;whiteSpace=wrap;html=1;" vertex="1" parent="WIOuvQ83ryZJ3mfCbLJ9-33">
          <mxGeometry x="200" y="90" width="110" height="60" as="geometry" />
        </mxCell>
        <mxCell id="WIOuvQ83ryZJ3mfCbLJ9-36" value="Actor" style="shape=umlActor;verticalLabelPosition=bottom;verticalAlign=top;html=1;outlineConnect=0;" vertex="1" parent="WIyWlLk6GJQsqaUBKTNV-1">
          <mxGeometry x="140" y="320" width="30" height="60" as="geometry" />
        </mxCell>
        <mxCell id="WIOuvQ83ryZJ3mfCbLJ9-37" value="Browser" style="rounded=1;whiteSpace=wrap;html=1;" vertex="1" parent="WIyWlLk6GJQsqaUBKTNV-1">
          <mxGeometry x="110" y="400" width="90" height="40" as="geometry" />
        </mxCell>
        <mxCell id="WIOuvQ83ryZJ3mfCbLJ9-44" value="Penetration testing tool&lt;br&gt;used to intercept data" style="text;html=1;align=center;verticalAlign=middle;resizable=0;points=[];autosize=1;strokeColor=none;fillColor=none;" vertex="1" parent="WIyWlLk6GJQsqaUBKTNV-1">
          <mxGeometry x="270" y="300" width="150" height="40" as="geometry" />
        </mxCell>
        <mxCell id="WIOuvQ83ryZJ3mfCbLJ9-46" value="" style="endArrow=classic;startArrow=classic;html=1;rounded=0;" edge="1" parent="WIyWlLk6GJQsqaUBKTNV-1">
          <mxGeometry width="50" height="50" relative="1" as="geometry">
            <mxPoint x="200" y="430" as="sourcePoint" />
            <mxPoint x="270" y="430" as="targetPoint" />
          </mxGeometry>
        </mxCell>
        <mxCell id="WIOuvQ83ryZJ3mfCbLJ9-47" value="" style="endArrow=classic;startArrow=classic;html=1;rounded=0;" edge="1" parent="WIyWlLk6GJQsqaUBKTNV-1">
          <mxGeometry width="50" height="50" relative="1" as="geometry">
            <mxPoint x="414.0000000000001" y="430" as="sourcePoint" />
            <mxPoint x="550" y="430" as="targetPoint" />
          </mxGeometry>
        </mxCell>
        <mxCell id="WIOuvQ83ryZJ3mfCbLJ9-48" value="data flows&lt;br&gt;both ways" style="text;html=1;align=center;verticalAlign=middle;resizable=0;points=[];autosize=1;strokeColor=none;fillColor=none;" vertex="1" parent="WIyWlLk6GJQsqaUBKTNV-1">
          <mxGeometry x="195" y="440" width="80" height="40" as="geometry" />
        </mxCell>
        <mxCell id="WIOuvQ83ryZJ3mfCbLJ9-49" value="" style="endArrow=classic;html=1;rounded=0;entryX=0;entryY=0.5;entryDx=0;entryDy=0;" edge="1" parent="WIyWlLk6GJQsqaUBKTNV-1" source="WIOuvQ83ryZJ3mfCbLJ9-36" target="WIOuvQ83ryZJ3mfCbLJ9-31">
          <mxGeometry width="50" height="50" relative="1" as="geometry">
            <mxPoint x="170" y="370" as="sourcePoint" />
            <mxPoint x="220" y="320" as="targetPoint" />
          </mxGeometry>
        </mxCell>
        <mxCell id="WIOuvQ83ryZJ3mfCbLJ9-51" value="flow temporality paused" style="text;html=1;align=center;verticalAlign=middle;resizable=0;points=[];autosize=1;strokeColor=none;fillColor=none;" vertex="1" parent="WIyWlLk6GJQsqaUBKTNV-1">
          <mxGeometry x="270" y="420" width="150" height="30" as="geometry" />
        </mxCell>
        <mxCell id="WIOuvQ83ryZJ3mfCbLJ9-57" style="edgeStyle=orthogonalEdgeStyle;rounded=0;orthogonalLoop=1;jettySize=auto;html=1;startArrow=none;startFill=0;endArrow=block;endFill=1;" edge="1" parent="WIyWlLk6GJQsqaUBKTNV-1" source="WIOuvQ83ryZJ3mfCbLJ9-53">
          <mxGeometry relative="1" as="geometry">
            <mxPoint x="680" y="490" as="targetPoint" />
            <Array as="points">
              <mxPoint x="630" y="490" />
            </Array>
          </mxGeometry>
        </mxCell>
        <mxCell id="WIOuvQ83ryZJ3mfCbLJ9-58" value="yes" style="edgeLabel;html=1;align=center;verticalAlign=middle;resizable=0;points=[];" vertex="1" connectable="0" parent="WIOuvQ83ryZJ3mfCbLJ9-57">
          <mxGeometry x="-0.6213" y="4" relative="1" as="geometry">
            <mxPoint x="76" y="-81" as="offset" />
          </mxGeometry>
        </mxCell>
        <mxCell id="WIOuvQ83ryZJ3mfCbLJ9-63" style="edgeStyle=orthogonalEdgeStyle;orthogonalLoop=1;jettySize=auto;html=1;entryX=0.5;entryY=0;entryDx=0;entryDy=0;entryPerimeter=0;fontSize=9;startArrow=none;startFill=0;endArrow=block;endFill=1;curved=1;dashed=1;" edge="1" parent="WIyWlLk6GJQsqaUBKTNV-1" source="WIOuvQ83ryZJ3mfCbLJ9-60" target="WIOuvQ83ryZJ3mfCbLJ9-36">
          <mxGeometry relative="1" as="geometry">
            <Array as="points">
              <mxPoint x="1015" y="200" />
              <mxPoint x="155" y="200" />
            </Array>
          </mxGeometry>
        </mxCell>
        <mxCell id="WIOuvQ83ryZJ3mfCbLJ9-60" value="" style="strokeWidth=2;html=1;shape=mxgraph.flowchart.database;whiteSpace=wrap;" vertex="1" parent="WIyWlLk6GJQsqaUBKTNV-1">
          <mxGeometry x="960" y="340" width="110" height="80" as="geometry" />
        </mxCell>
        <mxCell id="WIOuvQ83ryZJ3mfCbLJ9-61" style="edgeStyle=orthogonalEdgeStyle;rounded=0;orthogonalLoop=1;jettySize=auto;html=1;exitX=1;exitY=0.5;exitDx=0;exitDy=0;startArrow=none;startFill=0;endArrow=block;endFill=1;" edge="1" parent="WIyWlLk6GJQsqaUBKTNV-1" source="WIOuvQ83ryZJ3mfCbLJ9-59" target="WIOuvQ83ryZJ3mfCbLJ9-60">
          <mxGeometry relative="1" as="geometry" />
        </mxCell>
        <mxCell id="WIOuvQ83ryZJ3mfCbLJ9-62" value="&lt;font style=&quot;font-size: 9px;&quot;&gt;unauthorised&amp;nbsp;&lt;br&gt;access&lt;/font&gt;" style="text;html=1;align=center;verticalAlign=middle;resizable=0;points=[];autosize=1;strokeColor=none;fillColor=none;" vertex="1" parent="WIyWlLk6GJQsqaUBKTNV-1">
          <mxGeometry x="880" y="340" width="80" height="40" as="geometry" />
        </mxCell>
      </root>
    </mxGraphModel>
  </diagram>
</mxfile>
